<svg width="32" height="32" viewBox="0 0 32 32" fill="none" xmlns="http://www.w3.org/2000/svg">
<path d="M31.2881 7.10695C30.4887 3.95941 28.0406 1.51132 24.8931 0.711944C18.9977 -0.237315 13.0023 -0.237315 7.10695 0.711944C3.95941 1.51132 1.51132 3.95941 0.711944 7.10695C-0.237315 13.0023 -0.237315 18.9977 0.711944 24.8931C1.51132 28.0406 3.95941 30.4887 7.10695 31.2881C13.0023 32.2373 18.9977 32.2373 24.8931 31.2881C28.0406 30.4887 30.4887 28.0406 31.2881 24.8931C32.2373 18.9977 32.2373 13.0023 31.2881 7.10695Z" fill="#066FD1"/>
<path d="M10.0186 22.452C12.2477 21.065 14.13 19.1827 15.517 17.0031C15.9629 16.3096 15.9629 15.3684 15.517 14.6749C14.0805 12.4954 12.2477 10.6625 10.0186 9.27555C8.9288 8.58205 7.49226 8.97834 6.79877 10.0681C6.74923 10.0681 6.74923 10.1177 6.74923 10.1177C6.44516 10.6427 6.36307 11.2674 6.52115 11.8532C6.67922 12.439 7.06441 12.9376 7.59134 13.2384C8.73065 13.9814 9.72137 14.8235 10.613 15.8638C9.7709 16.904 8.73065 17.7957 7.59134 18.4892C6.8483 18.8855 6.40248 19.678 6.40248 20.5201C6.44818 21.3569 6.92751 22.1091 7.66669 22.504C8.40586 22.8989 9.29759 22.8792 10.0186 22.452Z" fill="white"/>
<path d="M17.7461 21.8081H23.3932C24.4334 21.8081 25.2755 21.3127 25.2755 20.322C25.2755 19.3313 24.4334 18.8359 23.3932 18.8359H17.7461C16.7059 18.8359 15.8638 19.3313 15.8638 20.322C15.8638 21.3127 16.7059 21.8081 17.7461 21.8081Z" fill="white"/>
</svg>
